# xmcd
#
# Track frame offsets:
#	150
#	20892
#	43019
#	64436
#	86538
#	107404
#	125995
#	147352
#	169042
#	190511
#	213098
#	234879
#	254933
#	277853
#	298785
#
# Disc length: 4263 seconds
#
# Revision: 0
# Processed by: cddbd v1.4PL0 Copyright (c) Steve Scherf et al.
# Submitted via: AudioConverter v4.05 Copyright (c) Dennis Rebentrost
#
DISCID=e210a50f
DTITLE=Vallenato de Oro  - Vallenatos de Oro vol 27
DYEAR=1900
DGENRE=Alternative
TTITLE0=Mi Segunda Vida
TTITLE1=Un Nuevo Amor
TTITLE2=Por una Mentira
TTITLE3=Amor de Tres
TTITLE4=Otra Primavera
TTITLE5=Para que no me olvides
TTITLE6=Que descaro
TTITLE7=Dime como te olvido
TTITLE8=Te Amo, Te Amo
TTITLE9=Ayudame a Olvidarla
TTITLE10=Antes que te Olvide
TTITLE11=Solamente Tu
TTITLE12=Sobrenatural
TTITLE13=De la Noche a la Ma_ana
TTITLE14=La Chacha
EXTD=
EXTT0=
EXTT1=
EXTT2=
EXTT3=
EXTT4=
EXTT5=
EXTT6=
EXTT7=
EXTT8=
EXTT9=
EXTT10=
EXTT11=
EXTT12=
EXTT13=
EXTT14=
PLAYORDER=
